<svg xmlns="http://www.w3.org/2000/svg" viewBox="0 0 64 64" role="img">
  <defs>
    <linearGradient id="yellow" x1="0" y1="0" x2="1" y2="1"><stop stop-color="#FFF176"/><stop offset="1" stop-color="#FFB300"/></linearGradient>
    <linearGradient id="pink" x1="0" y1="0" x2="1" y2="1"><stop stop-color="#FF9FC2"/><stop offset="1" stop-color="#E83E7B"/></linearGradient>
    <linearGradient id="blue" x1="0" y1="0" x2="1" y2="1"><stop stop-color="#A5EAFF"/><stop offset="1" stop-color="#3FA9F5"/></linearGradient>
    <linearGradient id="purple" x1="0" y1="0" x2="1" y2="1"><stop stop-color="#C9B7FF"/><stop offset="1" stop-color="#8055D9"/></linearGradient>
    <filter id="shadow" x="-30%" y="-30%" width="160%" height="170%"><feDropShadow dx="0" dy="3" stdDeviation="2" flood-color="#422B59" flood-opacity=".28"/></filter>
  </defs>
  <g filter="url(#shadow)" stroke-linejoin="round" stroke-width="1.6"><path d="M32 8c-12 0-20 9-20 20 0 8 5 13 10 17v5h20v-5c5-4 10-9 10-17C52 17 44 8 32 8z" fill="url(#yellow)" stroke="#C98500"/><path d="M24 54h16M25 59h14" stroke="#6E5A7E" stroke-width="4" stroke-linecap="round"/><path d="M22 25c2-6 7-9 13-9" fill="none" stroke="#FFF7B1" stroke-width="3" stroke-linecap="round"/></g>
</svg>