<svg xmlns="http://www.w3.org/2000/svg" viewBox="0 0 64 64" role="img">
  <defs>
    <linearGradient id="yellow" x1="0" y1="0" x2="1" y2="1"><stop stop-color="#FFF176"/><stop offset="1" stop-color="#FFB300"/></linearGradient>
    <linearGradient id="pink" x1="0" y1="0" x2="1" y2="1"><stop stop-color="#FF9FC2"/><stop offset="1" stop-color="#E83E7B"/></linearGradient>
    <linearGradient id="blue" x1="0" y1="0" x2="1" y2="1"><stop stop-color="#A5EAFF"/><stop offset="1" stop-color="#3FA9F5"/></linearGradient>
    <linearGradient id="purple" x1="0" y1="0" x2="1" y2="1"><stop stop-color="#C9B7FF"/><stop offset="1" stop-color="#8055D9"/></linearGradient>
    <filter id="shadow" x="-30%" y="-30%" width="160%" height="170%"><feDropShadow dx="0" dy="3" stdDeviation="2" flood-color="#422B59" flood-opacity=".28"/></filter>
  </defs>
  <g filter="url(#shadow)" stroke-linejoin="round" stroke-width="1.6"><path d="M9 48a23 23 0 0146 0h-8a15 15 0 00-30 0z" fill="#FF5D8F"/><path d="M17 48a15 15 0 0130 0h-8a7 7 0 00-14 0z" fill="#FFD84D"/><path d="M25 48a7 7 0 0114 0z" fill="#5AC8FA"/><circle cx="13" cy="49" r="8" fill="#F6FBFF"/><circle cx="51" cy="49" r="8" fill="#F6FBFF"/></g>
</svg>