<svg xmlns="http://www.w3.org/2000/svg" viewBox="0 0 64 64" role="img"><defs>
  <linearGradient id="navy" x1="0" y1="0" x2="1" y2="1"><stop stop-color="#6F8DC7"/><stop offset="1" stop-color="#314A82"/></linearGradient>
  <linearGradient id="blue" x1="0" y1="0" x2="1" y2="1"><stop stop-color="#A9E2FF"/><stop offset="1" stop-color="#4595DB"/></linearGradient>
  <linearGradient id="purple" x1="0" y1="0" x2="1" y2="1"><stop stop-color="#CBBEFF"/><stop offset="1" stop-color="#7561C8"/></linearGradient>
  <linearGradient id="green" x1="0" y1="0" x2="1" y2="1"><stop stop-color="#9AE8C9"/><stop offset="1" stop-color="#2DB183"/></linearGradient>
  <linearGradient id="gold" x1="0" y1="0" x2="1" y2="1"><stop stop-color="#FFE49A"/><stop offset="1" stop-color="#E6A52F"/></linearGradient>
  <linearGradient id="coral" x1="0" y1="0" x2="1" y2="1"><stop stop-color="#FFB0AA"/><stop offset="1" stop-color="#E35F68"/></linearGradient>
  <filter id="shadow" x="-30%" y="-30%" width="170%" height="180%"><feDropShadow dx="0" dy="3" stdDeviation="2" flood-color="#172441" flood-opacity=".25"/></filter></defs><g filter="url(#shadow)" stroke-linejoin="round" stroke-width="1.6"><ellipse cx="27" cy="47" rx="18" ry="8" fill="url(#gold)" stroke="#B57A18"/><path d="M9 37v10c0 4 8 8 18 8s18-4 18-8V37" fill="#EAB74D" stroke="#B57A18"/><ellipse cx="27" cy="37" rx="18" ry="8" fill="#FFD879" stroke="#B57A18"/><circle cx="45" cy="23" r="14" fill="url(#gold)" stroke="#B57A18"/><path d="M45 15v16m5-12c-3-4-10-2-10 2 0 5 10 2 10 7 0 4-7 6-11 1" fill="none" stroke="#8E641E" stroke-width="2"/></g></svg>