<svg xmlns="http://www.w3.org/2000/svg" viewBox="0 0 64 64" role="img"><defs>
  <linearGradient id="navy" x1="0" y1="0" x2="1" y2="1"><stop stop-color="#6F8DC7"/><stop offset="1" stop-color="#314A82"/></linearGradient>
  <linearGradient id="blue" x1="0" y1="0" x2="1" y2="1"><stop stop-color="#A9E2FF"/><stop offset="1" stop-color="#4595DB"/></linearGradient>
  <linearGradient id="purple" x1="0" y1="0" x2="1" y2="1"><stop stop-color="#CBBEFF"/><stop offset="1" stop-color="#7561C8"/></linearGradient>
  <linearGradient id="green" x1="0" y1="0" x2="1" y2="1"><stop stop-color="#9AE8C9"/><stop offset="1" stop-color="#2DB183"/></linearGradient>
  <linearGradient id="gold" x1="0" y1="0" x2="1" y2="1"><stop stop-color="#FFE49A"/><stop offset="1" stop-color="#E6A52F"/></linearGradient>
  <linearGradient id="coral" x1="0" y1="0" x2="1" y2="1"><stop stop-color="#FFB0AA"/><stop offset="1" stop-color="#E35F68"/></linearGradient>
  <filter id="shadow" x="-30%" y="-30%" width="170%" height="180%"><feDropShadow dx="0" dy="3" stdDeviation="2" flood-color="#172441" flood-opacity=".25"/></filter></defs><g filter="url(#shadow)" stroke-linejoin="round" stroke-width="1.6"><path d="M17 31c0-9 6-15 15-15s15 6 15 15c0 11-4 20-10 27M11 31C11 18 20 9 32 9s21 9 21 22c0 8-2 15-5 22M23 32c0-6 3-9 9-9s9 3 9 9c0 8-3 16-7 22m-4 4c-8-8-10-16-9-24m10-4c3 0 4 2 4 5 0 5-2 10-4 14" fill="none" stroke="url(#blue)" stroke-width="4" stroke-linecap="round"/></g></svg>